<svg xmlns="http://www.w3.org/2000/svg" width="120" height="123" viewBox="0 0 120 123">
    <g fill="none" fill-rule="evenodd">
        <path fill="#353535" d="M77.072 119.533l-1.283-4.034-1.282 4.034h2.564zm-2.24-5.357h2.107l2.854 8.684h-1.669l-.703-2.15h-3.278l-.688 2.15h-1.513l2.89-8.684zm14.769 0h5.407v1.275H91.21v2.38h3.047v1.214H91.21v2.54h4.003v1.275h-5.612v-8.684zm-9.404 4.397v-.098c0-2.61 1.79-4.433 4.197-4.433 1.984 0 3.52.995 3.712 3.037h-1.632c-.182-1.155-.823-1.75-2.068-1.75-1.525 0-2.517 1.19-2.517 3.134v.097c0 1.955.933 3.11 2.528 3.11 1.199 0 2.046-.608 2.215-1.835h1.572c-.253 2.09-1.73 3.147-3.787 3.147-2.71 0-4.22-1.738-4.22-4.41zm-11.574-.183c1.065 0 1.635-.522 1.635-1.482v-.049c0-1.032-.607-1.433-1.635-1.433H67.45v2.964h1.173zm-2.782-4.214h2.782c1.935 0 3.206.862 3.206 2.683v.05c0 1.833-1.319 2.648-3.169 2.648h-1.21v3.303h-1.61v-8.684zm-8.218 5.987h1.549c.109.875.46 1.604 1.924 1.604.955 0 1.632-.535 1.632-1.336 0-.802-.4-1.107-1.801-1.336-2.07-.279-3.05-.911-3.05-2.539 0-1.421 1.21-2.49 3.013-2.49 1.863 0 2.976.85 3.145 2.515H62.56c-.16-.912-.68-1.3-1.67-1.3-.98 0-1.488.472-1.488 1.142 0 .703.29 1.056 1.791 1.275 2.032.28 3.083.862 3.083 2.599 0 1.507-1.269 2.685-3.18 2.685-2.359 0-3.351-1.178-3.473-2.82zm-2.57-1.616v-.096c0-1.786-.992-3.11-2.685-3.11-1.694 0-2.698 1.25-2.698 3.122v.098c0 1.894 1.15 3.12 2.723 3.12 1.632 0 2.66-1.25 2.66-3.134zm-7.064.025v-.098c0-2.537 1.814-4.42 4.379-4.42 2.576 0 4.356 1.833 4.356 4.385v.097c0 2.538-1.73 4.446-4.356 4.446-2.65 0-4.38-1.908-4.38-4.41zm-4.468-.376c1.076 0 1.645-.462 1.645-1.384v-.05c0-.994-.617-1.337-1.645-1.337h-1.295v2.77h1.294zm-2.904-4.02h2.904c1.9 0 3.23.777 3.23 2.55v.05c0 1.359-.847 2.052-1.925 2.331l2.433 3.753h-1.742l-2.262-3.51h-1.029v3.51h-1.609v-8.685zm-13.35 0h2.104l2.854 8.685h-1.668l-.702-2.15h-3.278l-.69 2.15h-1.512l2.892-8.686zm.954 1.322l-1.28 4.035h2.563l-1.283-4.035zm5.328-1.323h5.407v1.276h-3.799v2.38h3.049v1.214h-3.049v2.54h4.005v1.276H33.55v-8.686z"/>
        <path fill="#1B1B38" d="M8.738 94.7H15.4l-2.26-6.617-1.035-3.94h-.074c-.37 1.66-.717 2.972-1.037 3.94l-2.257 6.616zM0 105.48l9.552-26.392h5.072l9.513 26.391H21.25c-.915 0-1.587-.15-2.018-.445-.433-.3-.796-.869-1.092-1.712l-1.63-4.607H7.628l-1.63 4.607c-.295.843-.653 1.412-1.073 1.712-.42.295-1.086.445-2 .445H0zm26.174-3.385l2.221-3.085c.173.201.425.455.76.765.333.31.987.725 1.961 1.243.974.523 1.943.781 2.906.781.766 0 1.382-.155 1.85-.464.47-.31.704-.773.704-1.393 0-.472-.337-.912-1.017-1.32-.679-.41-1.505-.8-2.48-1.17-.976-.372-1.958-.801-2.945-1.283-.986-.485-1.819-1.153-2.497-2.008-.68-.854-1.018-1.852-1.018-2.992 0-1.81.696-3.185 2.09-4.127 1.395-.942 3.141-1.414 5.24-1.414.715 0 1.425.063 2.128.187.703.124 1.407.33 2.11.614.703.285 1.277.7 1.721 1.244.445.548.667 1.18.667 1.897v1.969H36.43v-.928c0-.422-.247-.75-.74-.986-.494-.235-1.038-.353-1.63-.353-.864 0-1.549.15-2.054.445-.506.3-.76.72-.76 1.266 0 .544.345 1.02 1.038 1.43.69.409 1.529.786 2.517 1.133s1.968.745 2.944 1.19c.974.445 1.806 1.092 2.499 1.935.69.842 1.035 1.846 1.035 3.011 0 1.76-.684 3.163-2.054 4.218-1.37 1.054-3.104 1.579-5.202 1.579-1.53 0-2.95-.284-4.257-.854-1.308-.57-2.234-1.128-2.777-1.673l-.814-.857zm19.262-3.753V90.09h-2.444v-3.756h2.555V81.17h4.591v5.164h4.294v3.756h-4.294v7.658c0 1.362.389 2.299 1.166 2.807.778.507 1.635.76 2.573.76l.851-.073v4.126c-.395.075-.876.112-1.443.112-.642 0-1.258-.045-1.85-.13-.593-.087-1.273-.279-2.038-.577-.765-.297-1.425-.686-1.98-1.17-.556-.483-1.025-1.177-1.407-2.082-.383-.904-.574-1.965-.574-3.178zm16.298-5.24h8.181c-.025-1.114-.376-2.032-1.054-2.753-.68-.717-1.512-1.077-2.499-1.077-1.21 0-2.216.34-3.017 1.023-.804.683-1.34 1.616-1.611 2.806zm-4.961 2.453c0-2.925.89-5.31 2.665-7.157 1.777-1.844 4.084-2.77 6.924-2.77 2.615 0 4.663.85 6.146 2.547 1.48 1.698 2.22 3.85 2.22 6.452l-.11 1.744H61.585c.172 1.613.791 2.863 1.852 3.756 1.06.891 2.333 1.337 3.813 1.337.888 0 1.776-.178 2.665-.538.89-.359 1.542-.71 1.964-1.06l.665-.52 1.962 3.271c-.074.073-.185.181-.333.316-.148.138-.475.366-.98.688-.507.322-1.033.606-1.575.855-.543.247-1.24.478-2.09.688-.853.21-1.723.315-2.612.315-3.036 0-5.486-.959-7.349-2.88-1.862-1.921-2.794-4.267-2.794-7.044zm37.755-12.12v-4.348h4.075v4.348h-4.075zm4.439 5.392v16.65h-2.178c-.865 0-1.495-.198-1.89-.596-.395-.395-.592-1.04-.592-1.93L94.3 86.34h2.19c.864 0 1.493.204 1.887.614.388.4.581 1.028.589 1.872zm-9.62-2.747l.85.074V90.8c-.32-.047-.703-.072-1.147-.072-1.11 0-2.147.334-3.11 1.003-.964.668-1.642 1.66-2.036 2.975-.272.964-.408 1.993-.408 3.085v7.686h-4.665l-.004-19.136h2.003c1.678 0 2.518.769 2.518 2.305v1.114l-.074 1.19h.074c.445-1.412 1.203-2.578 2.277-3.493 1.073-.916 2.314-1.377 3.721-1.377zm25.614 10.737v-.445h-.815c-4.22 0-6.329.992-6.329 2.974 0 .669.245 1.247.739 1.729s1.196.724 2.112.724c1.207 0 2.227-.527 3.052-1.579.829-1.054 1.241-2.188 1.241-3.403zm4.628-3.645v11.861h-1.927c-.813 0-1.417-.191-1.814-.574-.392-.387-.592-.887-.592-1.507l.039-.817h-.075c-.048.099-.11.223-.185.372-.074.148-.27.414-.594.799-.32.383-.676.723-1.072 1.023-.396.296-.938.563-1.629.798-.69.234-1.432.352-2.221.352-1.778 0-3.294-.533-4.555-1.599-1.258-1.062-1.887-2.5-1.887-4.31 0-.943.197-1.786.593-2.527.393-.744.943-1.34 1.648-1.785.703-.445 1.438-.824 2.202-1.134.763-.31 1.611-.527 2.535-.65.927-.126 1.705-.213 2.334-.26.629-.05 1.264-.076 1.907-.076h.592v-.147c0-1.34-.278-2.292-.834-2.865-.556-.57-1.437-.854-2.648-.854-.593 0-1.16.094-1.702.278-.544.187-.814.518-.814.985v1.004h-4.37V89.53c0-.818.253-1.51.759-2.08.507-.57 1.173-.973 1.999-1.207.828-.237 1.567-.398 2.22-.486.655-.083 1.304-.13 1.947-.13 5.428 0 8.143 2.516 8.144 7.544z"/>
        <path fill="#C11818" d="M81.917 11.902c-.053.102-.18.14-.28.087-.1-.055-.138-.18-.085-.282.053-.1.178-.138.279-.085.102.054.14.18.086.28m-1.411 2.717c-.052-.027-.07-.092-.044-.144.027-.052.091-.07.143-.044.051.028.071.092.044.144-.028.052-.092.071-.143.044m-.198-4.944c-.032-.017-.044-.057-.027-.09.017-.032.057-.044.09-.027.032.017.044.058.028.09-.018.032-.059.045-.09.027m-2.192 7.465c-.032-.017-.044-.057-.027-.09.018-.033.058-.044.09-.028.032.018.043.057.027.09-.018.033-.058.045-.09.028m-.069-3.698c-.056.107-.189.148-.296.09-.107-.057-.148-.19-.09-.297.056-.108.189-.148.296-.092.107.058.148.191.09.299m-.544 5.186c-.054.101-.18.14-.28.085-.101-.053-.14-.179-.086-.28.054-.101.179-.14.28-.086.101.054.14.18.085.281M77.063 7.84c.038-.073.128-.1.2-.062.072.04.1.129.061.202-.038.073-.128.1-.2.062-.073-.039-.1-.13-.061-.202m-1.536 12.557c-.032-.017-.045-.058-.027-.09.016-.032.056-.044.089-.027.032.017.045.058.027.09-.016.032-.056.044-.089.027m-.207-2.467c.027-.05.091-.07.143-.043.05.027.072.092.044.143-.028.052-.092.072-.143.044-.052-.027-.071-.092-.044-.144m-.145-2.39c.028-.052.092-.071.144-.045.051.028.07.092.044.144-.028.052-.093.071-.143.045-.053-.028-.071-.092-.045-.144m-.104-6.735c-.053.101-.179.14-.28.085-.1-.053-.138-.179-.085-.28.053-.101.18-.14.28-.086.101.054.14.18.085.28m-.093 3.82c-.038.072-.129.1-.201.062-.072-.04-.1-.13-.062-.202.039-.073.13-.1.201-.062.073.038.1.129.062.202m.297-2.31c.032.017.044.057.028.09-.018.032-.058.044-.09.027-.032-.017-.044-.057-.027-.09.017-.032.057-.044.09-.027m2.573.642c.052.027.071.092.044.143-.027.052-.091.071-.143.044-.051-.027-.07-.092-.044-.143.028-.052.092-.072.144-.044m-3.834-5.145c-.032-.017-.045-.057-.028-.09.017-.032.057-.044.09-.027.032.017.045.057.027.09-.017.032-.056.045-.089.027m-.73 13.948c-.038.073-.128.1-.2.061-.073-.038-.1-.128-.062-.2.039-.073.128-.1.2-.062.073.038.1.129.062.201m-.246 3.376c-.055-.03-.076-.097-.047-.15.029-.055.096-.076.15-.047.054.029.075.096.046.15-.03.055-.096.075-.15.047m-.333-6.535c-.053-.03-.075-.096-.045-.15.029-.055.095-.076.15-.047.053.029.073.096.045.15-.028.055-.096.075-.15.047m-.798-5.936c-.042-.022-.057-.074-.035-.115.022-.041.073-.057.115-.036.041.023.056.074.035.116-.022.042-.074.057-.115.035m.095 4.494c-.058.108-.19.148-.297.091-.107-.057-.148-.19-.09-.298.056-.107.189-.148.296-.09.107.056.147.19.09.297m-.302-2.446c.053.027.072.092.044.143-.027.051-.09.072-.143.044-.05-.028-.07-.091-.043-.143.027-.052.091-.071.142-.044m-.21 5.664c-.057.108-.19.15-.297.091-.107-.056-.148-.19-.091-.297.058-.108.19-.149.297-.092.107.058.148.191.09.298m-.512 6.244c-.057.108-.19.148-.297.091-.106-.057-.147-.19-.09-.298.057-.107.19-.148.296-.091.108.057.148.19.091.298m.277-16.531c.041.022.056.074.035.116-.022.04-.074.057-.115.034-.041-.022-.057-.073-.035-.114.022-.042.073-.058.115-.036m.492-1.084c.038-.07.124-.097.194-.06.07.038.098.126.06.196-.037.07-.125.097-.195.06-.07-.038-.096-.126-.059-.196M70.25 21.506c-.051-.027-.071-.092-.044-.143.028-.052.092-.072.143-.044.052.028.071.092.044.143-.028.052-.091.072-.143.044m-.4 5.482c-.033-.018-.046-.058-.029-.09.018-.032.058-.045.09-.027.033.017.045.057.027.09-.017.032-.057.044-.088.027m.034-10.85c.032.018.044.059.027.09-.017.033-.057.045-.09.028-.032-.017-.044-.057-.026-.09.017-.032.057-.045.089-.027m-.127-11.962c-.038.073-.127.1-.2.06-.072-.038-.1-.127-.062-.2.04-.073.129-.1.201-.062.073.039.1.129.061.202m-.187 6.662c-.051-.028-.071-.093-.044-.145.028-.052.092-.071.143-.044.052.028.072.093.045.145-.028.051-.092.072-.144.044m-.002 2.62c-.058.108-.19.148-.297.09-.107-.056-.147-.189-.09-.297.056-.107.188-.148.296-.091.107.058.148.19.09.298m-.367 5.636c.028-.051.092-.071.144-.044.051.028.07.092.044.144-.028.051-.092.07-.144.044-.051-.028-.07-.092-.044-.144m-6.22 11.642l-2.792-8.48-4.427 13.01c-3.598 1.938-7.126 3.439-10.441 4.607l9.906-27.346c2.733-1.415 5.459-2.595 8.148-3.587h.034l6.03 16.537c-2.118 1.946-4.278 3.699-6.458 5.26m5.947-1.796c-.04.072-.128.1-.2.062-.073-.039-.1-.13-.062-.202.039-.072.128-.1.2-.061.073.038.1.129.062.201m-2.07.793c-.032-.018-.044-.058-.027-.09.017-.033.057-.046.09-.028.031.017.044.058.026.09-.016.032-.056.045-.088.028m-1.693 1.737c-.053-.03-.073-.097-.045-.15.029-.055.096-.075.15-.047.054.029.075.097.045.15-.028.054-.095.075-.15.047m-2.325.837c-.033-.017-.044-.057-.027-.09.017-.032.057-.044.089-.027.032.017.044.056.027.09-.017.032-.056.044-.09.027m-1.281-2.489c-.033-.017-.044-.058-.028-.09.018-.032.058-.044.09-.027.033.017.044.057.028.09-.018.032-.058.045-.09.027m-.791-2.439c-.038.073-.128.1-.2.062-.073-.038-.1-.129-.062-.202.039-.072.128-.1.2-.062.073.04.1.13.062.202m-.41 2.624c-.057.108-.19.148-.297.091-.107-.057-.147-.19-.09-.297.056-.108.19-.149.296-.092.107.058.148.191.09.298m-.019 4.043c-.038.073-.128.1-.2.062-.073-.038-.1-.129-.063-.201.039-.073.129-.1.201-.062.073.038.1.128.062.201m-.434-8.581c.017-.033.056-.045.089-.028.032.018.045.058.028.09-.018.032-.058.045-.09.027-.032-.017-.044-.057-.027-.09m-.568 6.929c-.032-.018-.044-.058-.026-.09.016-.032.056-.045.089-.027.032.016.044.057.027.09-.017.032-.057.044-.09.027m-.112-3.952c.017-.033.056-.045.089-.028.032.018.045.058.028.09-.018.033-.058.045-.09.027-.032-.017-.044-.056-.027-.089m-.724 2.387c-.038.073-.128.1-.2.061-.073-.038-.1-.128-.062-.2.038-.073.128-.101.2-.062.073.038.1.128.062.201m-.577 3.044c-.053-.028-.074-.095-.046-.15.03-.054.096-.075.15-.046.054.029.074.097.046.151-.028.054-.096.074-.15.045m-1.065 2.21c-.032-.016-.044-.056-.028-.089.018-.032.057-.044.09-.027.032.017.045.057.027.09-.017.032-.057.044-.089.027m-1.817.48c-.038.072-.128.1-.2.061-.073-.04-.1-.129-.061-.201.038-.073.127-.1.2-.062.072.038.1.129.061.201m-2.974 2.123c-.032-.017-.044-.057-.026-.09.016-.032.056-.044.089-.027.032.018.044.057.027.09-.017.032-.057.045-.09.027m-2.752 1.567c-.039.073-.129.1-.201.062-.073-.038-.1-.129-.061-.201.038-.073.127-.1.2-.062.073.039.1.13.062.201m-3.141.294c-.033-.018-.045-.057-.028-.09.018-.032.058-.045.09-.027.032.017.044.057.027.09-.018.032-.057.044-.09.027m-.977-26.25c.047-.088.155-.121.242-.075.087.047.12.155.074.242-.046.088-.155.122-.242.075-.087-.046-.12-.155-.074-.243m-.268-2.835c-.05-.027-.07-.09-.043-.14.027-.051.09-.07.14-.044.05.028.07.09.043.14-.027.051-.09.07-.14.044M44.373 38c-.033-.017-.044-.057-.027-.09.017-.032.057-.044.088-.026.033.017.045.057.028.09-.017.032-.057.044-.09.026m-.121-3.31c-.038.072-.128.1-.2.061-.073-.038-.1-.129-.062-.202.039-.072.129-.1.2-.061.073.039.1.128.062.201m-.3-4.498c-.064.124-.217.17-.34.104-.122-.065-.17-.218-.103-.34.065-.125.217-.17.34-.105.122.065.17.218.104.34M43.1 14.983c-.054-.03-.075-.097-.046-.151.029-.054.096-.075.15-.046.053.028.074.096.046.15-.03.054-.097.075-.15.047m-.17 13.495c-.04.078-.138.108-.217.066-.078-.041-.108-.14-.066-.218.041-.079.139-.108.217-.067.078.043.108.14.067.22m-.447-7.508c-.044-.023-.06-.078-.037-.122s.077-.061.122-.038c.044.024.06.079.038.122-.024.045-.079.062-.123.038m-.004 16.285c-.032-.017-.044-.057-.028-.09.018-.032.057-.043.09-.027.032.018.045.058.027.09-.017.032-.057.045-.089.027m-.03 3.818c-.057.107-.19.148-.297.09-.107-.057-.148-.19-.091-.297.057-.108.19-.148.296-.091.108.057.148.19.091.298m-.5-33.285c.017-.033.058-.046.092-.028.033.017.046.06.028.093s-.059.046-.092.028c-.034-.018-.047-.06-.029-.093m-.101 17.938c-.045.084-.149.116-.233.07-.083-.044-.115-.149-.07-.232.044-.085.148-.117.232-.071.083.044.115.148.07.233m-.267 2.664c-.06-.032-.082-.106-.05-.166.032-.06.106-.083.165-.051.06.031.083.106.051.166-.032.06-.106.083-.166.051m-.159-15.481c.062-.115.204-.159.32-.098.114.062.157.205.097.32-.061.116-.205.16-.32.098-.114-.061-.158-.205-.097-.32m-.638 9.558c-.032-.018-.044-.058-.028-.09.018-.033.058-.045.09-.027.032.017.044.057.028.09-.018.032-.058.044-.09.027m-.166 13.192c-.033-.018-.046-.06-.028-.093.017-.033.059-.046.092-.028s.046.059.028.093c-.017.033-.059.046-.092.028m-.692-15.753c-.048.092-.161.126-.253.078-.091-.049-.126-.163-.078-.255.049-.091.163-.125.254-.077.09.049.126.163.077.254m-.329 21.79c-.032-.017-.044-.056-.027-.089.017-.032.056-.045.09-.027.031.017.044.057.026.09-.017.032-.057.044-.089.027m-.127-12.473c.026-.051.09-.071.142-.044.05.028.07.092.043.144-.027.051-.09.071-.142.044-.052-.028-.072-.092-.044-.144m-.154-12.874c-.065.123-.216.171-.34.105-.122-.065-.169-.218-.103-.341.065-.123.217-.17.34-.105.123.065.17.218.103.341m-.044 9.958c-.039.072-.129.1-.2.062-.073-.039-.1-.13-.062-.202.038-.073.128-.1.2-.061.073.038.1.128.062.2m-.394 7.398c.018-.032.057-.045.09-.027.032.017.044.057.027.09-.018.032-.058.044-.09.027-.032-.017-.044-.057-.027-.09m.033 5.342c-.051-.028-.07-.091-.043-.143.028-.052.09-.072.142-.045.052.028.072.093.044.144-.027.052-.091.072-.143.044m-.26-28.088c-.084-.045-.116-.15-.071-.233.045-.085.148-.116.232-.072.084.045.116.15.071.233-.044.085-.148.117-.232.072m.112 21.21c-.053.1-.178.139-.28.085-.1-.053-.138-.18-.085-.28.054-.101.18-.14.28-.086.1.053.14.18.085.28m-.093 3.82c-.039.072-.129.1-.201.06-.073-.038-.1-.128-.061-.2.038-.073.128-.1.2-.062.072.039.1.129.062.202m-.193 7.248c-.032-.017-.045-.057-.027-.09.017-.033.057-.044.089-.028.032.018.045.058.027.09-.016.033-.056.045-.089.028m-.272-28.221c-.082-.044-.114-.148-.07-.23.045-.084.147-.116.23-.071.083.044.115.147.07.23-.044.084-.146.115-.23.071m-.128 23.914c-.053-.03-.074-.096-.046-.15.03-.055.096-.075.15-.047.054.03.075.097.046.15-.028.055-.096.075-.15.047m-.552 1.327c-.053-.028-.074-.096-.045-.15.029-.054.096-.075.15-.047.053.03.074.097.045.151-.028.054-.095.074-.15.046m-.244-17.351c-.086-.046-.119-.153-.073-.239s.152-.119.238-.073.119.153.073.239c-.045.086-.152.119-.238.073M36.577 42.5c-.032-.017-.044-.057-.027-.09.017-.032.057-.044.09-.027.032.018.044.058.027.09-.018.032-.058.045-.09.027m-.091-23.97c.025-.047.083-.064.13-.04.046.025.064.084.04.13-.026.047-.084.066-.13.04-.048-.024-.065-.082-.04-.13m-.192 10.313c-.056.107-.189.147-.296.09-.107-.057-.147-.19-.09-.297.056-.108.189-.149.296-.091.107.057.148.19.09.298m-.301-2.447c.051.028.071.092.044.143-.028.052-.092.072-.143.044-.052-.027-.071-.091-.044-.143.028-.052.092-.071.143-.044m-.166-3.694c.037-.07.124-.096.195-.06.07.038.096.125.059.196-.037.07-.124.098-.194.06-.07-.038-.098-.125-.06-.196m-.134 15.82c-.057.107-.19.148-.297.09-.108-.056-.148-.19-.09-.296.056-.108.188-.15.296-.092.107.057.147.191.09.298m-.301-2.446c.05.027.07.092.043.143-.027.052-.09.07-.142.044-.052-.028-.072-.092-.044-.144.027-.052.091-.071.143-.043m-.166-3.694c.038-.07.124-.098.194-.06.07.038.097.125.06.195-.037.071-.125.097-.195.06-.07-.037-.096-.124-.059-.195m-.357-11.685c-.042-.021-.057-.073-.035-.114.021-.042.073-.057.115-.035.041.021.056.073.035.114-.023.042-.074.058-.115.035m-.004 10.906c-.041-.021-.056-.073-.035-.114.022-.042.074-.058.114-.036.042.022.058.073.035.115-.021.042-.073.057-.114.035m-.55-16.504c-.06-.032-.083-.107-.051-.166.031-.06.105-.083.165-.05.059.03.081.105.05.165-.031.06-.105.083-.165.05m-.217 25.854c-.054-.03-.075-.096-.046-.15.029-.055.096-.076.15-.046.053.028.074.096.045.15-.028.055-.096.075-.149.046m-.234-16.43c-.052-.027-.071-.091-.044-.143.028-.052.092-.072.144-.044.051.027.071.092.044.144-.028.051-.093.071-.144.044m-.07 3.602c-.037.07-.124.096-.194.06-.07-.038-.097-.125-.06-.196.037-.07.125-.097.195-.06.07.038.096.125.059.196m-.386 15.582c-.038.072-.128.1-.2.06-.073-.038-.1-.128-.062-.2.039-.073.128-.1.2-.062.073.039.1.129.062.202m-.758-23.396c-.06.111-.196.154-.307.094-.112-.06-.153-.196-.094-.308.058-.11.196-.154.306-.094.111.058.154.197.095.308m-.159 17.348c-.05-.027-.069-.09-.042-.14.026-.051.089-.07.14-.043.05.027.07.09.042.14-.026.051-.089.07-.14.043m-.564-7.377c-.046.086-.152.119-.238.074-.086-.046-.119-.153-.074-.24.046-.086.153-.118.239-.072.086.045.118.152.073.238M31.18 40.96c-.051-.028-.07-.092-.043-.144.027-.051.09-.071.143-.044.051.028.071.092.044.143-.028.052-.092.072-.144.045m.06-14.754c.05.027.07.09.043.14-.027.051-.09.07-.14.043-.05-.027-.07-.09-.043-.14.027-.051.09-.07.14-.043m-.222-2.976c.04-.077.136-.106.212-.065.077.04.105.136.065.213-.04.077-.136.106-.212.065-.077-.04-.106-.136-.065-.213m-.172 11.555c-.04.077-.136.107-.212.066-.077-.042-.106-.137-.065-.215.04-.076.135-.105.212-.064.077.041.106.136.065.213m-.305 1.284c-.05-.027-.07-.09-.043-.14.027-.052.089-.07.14-.043.05.026.069.09.043.14-.027.05-.09.07-.14.043m-.132 7.534c-.054-.029-.075-.096-.046-.15.029-.054.097-.075.15-.047.054.03.074.097.046.152-.03.053-.096.073-.15.045m-1.135-5.015c-.036-.02-.051-.067-.031-.103.02-.038.066-.052.104-.033.037.02.052.067.032.105-.02.037-.067.051-.105.031m-.534-5.32c-.036-.02-.051-.067-.031-.105.02-.038.066-.052.104-.032.037.02.051.067.031.105-.02.037-.066.052-.104.032m-.154-3.236c.028-.052.093-.071.144-.044.052.027.072.092.044.144-.028.052-.092.072-.144.044-.051-.027-.071-.092-.044-.144m1.945-4.968c.038.02.052.067.033.105-.02.037-.067.052-.104.032-.038-.02-.052-.067-.032-.104.02-.038.067-.052.103-.033m2.83 8.95c.052.028.071.093.044.145-.028.052-.092.07-.144.043-.051-.027-.072-.092-.044-.144.027-.052.092-.072.143-.044m.436-16.618c.047.025.064.084.04.13-.026.048-.083.065-.13.041-.047-.026-.065-.084-.04-.13.025-.048.084-.066.13-.04m5.773 6.601c.031.018.044.057.026.09-.016.032-.056.045-.089.027-.032-.016-.044-.057-.027-.09.017-.032.057-.044.09-.027m2.525 8.542c.048-.09.159-.123.249-.076.089.048.123.16.076.25-.049.09-.16.123-.249.076-.09-.048-.124-.16-.076-.25m.108-15.523c.053-.1.18-.14.28-.086.1.054.138.18.085.28-.053.102-.18.14-.28.087-.1-.054-.138-.18-.085-.28m.22-7.852c.036.02.05.066.03.102-.02.036-.064.05-.1.03-.037-.019-.05-.064-.032-.1.02-.037.065-.051.101-.032m1.44 13.942c.037-.072.125-.099.197-.061.07.038.098.127.06.199-.038.071-.126.098-.198.06-.07-.038-.097-.126-.06-.198M44.931 6.51c.06-.116.205-.16.32-.1.116.063.16.207.098.324-.061.115-.205.16-.32.098-.116-.061-.16-.206-.098-.322m.652 25.632c-.017.033-.057.045-.09.028-.032-.018-.044-.058-.027-.09.017-.033.057-.045.09-.028.032.018.044.057.027.09m.184-6.311c.037.02.051.066.031.104-.02.038-.066.052-.104.032-.037-.02-.051-.067-.031-.104.02-.038.066-.052.104-.032m.312-2.486c-.023.043-.076.06-.119.036-.044-.023-.06-.077-.037-.12.023-.044.076-.06.12-.037.043.024.059.077.036.12m-.316-4.67c.062-.116.206-.16.322-.098.116.062.16.207.099.323-.062.116-.206.16-.322.099-.116-.062-.16-.207-.099-.323m1.031 10.602c.06-.114.201-.156.314-.097.113.061.156.202.096.315-.06.114-.2.157-.314.097-.112-.06-.156-.202-.096-.315m.026-5.145c.053-.1.178-.139.279-.085.1.053.138.178.085.28-.054.1-.179.137-.279.084-.1-.054-.138-.179-.085-.28m.33-16.1c.044.024.06.08.037.123-.024.045-.078.062-.123.038-.044-.023-.06-.079-.037-.123s.078-.06.122-.038m.114-3.218c.033.017.046.059.028.092-.017.034-.06.046-.092.029-.034-.019-.046-.06-.029-.093.018-.034.06-.047.093-.028m.109 22.747c-.017.033-.057.045-.09.028-.032-.017-.043-.058-.027-.09.018-.033.058-.045.09-.027.032.016.044.056.027.089m-.024-6.758c-.023.042-.077.06-.12.037-.043-.024-.06-.078-.036-.12.022-.044.076-.061.119-.038.043.024.06.077.037.12m.853-3.779c.05.027.07.09.042.14-.026.05-.088.07-.139.043-.05-.027-.069-.09-.041-.14.026-.05.088-.07.138-.043m.143-2.764c.048-.088.157-.123.245-.075.089.047.122.157.075.246-.047.088-.156.121-.245.075-.088-.047-.121-.158-.075-.246m.674 9.912c-.02.037-.066.051-.104.031-.037-.02-.051-.067-.031-.104.02-.038.066-.052.103-.032.038.02.052.067.032.105m-.192-13.94c.037-.07.123-.097.193-.06.07.038.096.125.06.194-.038.07-.125.097-.194.06-.07-.038-.096-.125-.059-.194m.27-4.517c.038.02.052.068.032.104-.02.038-.067.053-.105.033-.036-.02-.051-.067-.031-.104.02-.038.067-.052.104-.033m.708 1.142c.05.027.07.09.044.14-.028.05-.09.07-.14.043-.051-.026-.07-.09-.044-.14.028-.051.09-.07.14-.043m.133 14.187c-.027.05-.09.07-.14.043-.05-.027-.069-.09-.042-.14.026-.05.09-.069.14-.043.05.028.069.09.042.14m-.202-15.435c.041-.077.136-.107.213-.066.076.041.105.137.065.214-.041.077-.136.106-.213.065-.076-.041-.106-.136-.065-.213m.83-2.043c.037.02.051.067.032.105-.02.037-.067.052-.104.032-.038-.02-.052-.067-.032-.105.02-.038.067-.052.103-.032m.146 8.122c-.018.033-.059.046-.093.028-.033-.018-.046-.06-.028-.093s.06-.047.093-.03c.033.02.046.061.028.095m.194 6.189c.039-.073.128-.1.2-.062.073.038.1.129.062.202-.038.072-.128.1-.2.06-.073-.038-.1-.127-.062-.2m1.309-2.735c.034.017.046.059.028.092-.017.034-.06.047-.093.029s-.045-.06-.028-.093c.019-.033.06-.046.093-.028m.178-7.41c.033.018.047.06.028.093-.017.034-.059.046-.092.029-.033-.018-.046-.06-.029-.093.018-.034.06-.046.093-.029m.136-2.747c.052.028.072.093.044.145-.027.052-.092.071-.143.044-.052-.028-.072-.093-.044-.144.027-.052.091-.072.143-.045m.082 8.055c.047-.089.156-.122.244-.076.088.047.122.158.075.246s-.156.123-.244.075c-.089-.047-.122-.157-.075-.245m.16-2.747c.056-.108.19-.15.296-.092.107.057.148.19.091.298-.057.107-.19.148-.297.092-.107-.058-.147-.191-.09-.298m1.342-7.869c.042.023.058.074.035.115-.022.042-.073.057-.114.036-.042-.022-.057-.074-.035-.115.022-.042.073-.058.114-.036m.492 4.766c-.029.052-.092.072-.144.044-.051-.027-.07-.092-.043-.144.027-.05.09-.07.143-.043.051.028.07.092.044.143m-.21-3.836c.037-.071.124-.097.194-.06.07.037.096.124.06.195-.038.07-.125.097-.195.06-.07-.038-.097-.125-.06-.195m1.38-.037c.046-.086.152-.119.238-.073s.119.152.073.24c-.046.085-.153.118-.239.072s-.118-.153-.072-.24m1.575 6.388c.054.029.074.096.046.15-.029.055-.096.076-.15.046-.054-.029-.075-.096-.046-.15.029-.055.096-.075.15-.046m.488-2.745c-.038.072-.128.1-.2.061-.073-.038-.1-.129-.061-.201.038-.072.128-.1.2-.062.072.039.1.13.061.202m-.272-4.014c.055-.1.18-.14.28-.086.101.055.14.18.085.281-.053.1-.178.14-.279.086-.1-.054-.139-.18-.086-.28m.613 6.885c.052.027.072.092.043.144-.026.052-.09.07-.142.044-.052-.028-.071-.092-.044-.144.028-.052.091-.072.143-.044m.976-5.164c.032.018.044.057.027.09-.017.032-.057.045-.09.027-.031-.017-.044-.057-.026-.09.016-.032.056-.044.089-.027m1.747 2.783c.041-.076.136-.105.213-.064.076.04.106.136.065.212-.041.077-.136.107-.213.066-.076-.041-.105-.136-.065-.214m.741-5.167c.033.017.045.058.028.09-.017.033-.057.045-.09.028-.032-.017-.045-.057-.027-.09.017-.033.057-.045.09-.028m1.128 2.925c.054-.102.179-.14.279-.086.101.053.139.179.085.28-.053.102-.178.14-.279.086-.1-.053-.139-.179-.085-.28m2.475 2.027c.038.02.053.067.032.105-.02.037-.066.052-.103.032-.038-.02-.052-.067-.032-.105.02-.038.066-.052.103-.032m.303 2.328c.037.02.052.067.032.105-.02.037-.067.052-.104.031-.037-.02-.052-.067-.032-.104.02-.038.067-.052.104-.032m.299-6.544c.032.018.045.058.028.09-.017.032-.057.045-.09.027-.032-.017-.045-.057-.028-.09.018-.032.058-.045.09-.027m1.1 9.504c.05.026.07.09.043.14-.027.05-.09.07-.14.043-.051-.027-.07-.09-.043-.14.027-.051.09-.07.14-.043m-.07-1.249c.04-.077.136-.106.212-.065.078.04.106.136.066.213-.041.077-.136.107-.213.066-.076-.041-.106-.137-.065-.214m.442 3.75c.033.017.045.057.028.09-.017.033-.058.045-.09.028-.032-.018-.044-.058-.027-.09.018-.033.057-.045.089-.028m.28.804c-.039.072-.128.1-.2.062-.073-.039-.1-.13-.062-.202.04-.072.128-.1.2-.061.073.038.1.129.062.2m-.305-10.83c.046-.087.153-.12.238-.074.086.046.12.153.073.239-.045.086-.152.119-.238.073-.085-.046-.12-.153-.073-.239m.794 3.084c.001-.006-.001-.01.001-.015.058-.107.19-.149.297-.09.107.056.147.19.091.297-.057.107-.19.148-.297.091-.092-.05-.121-.155-.096-.25.002-.012-.013-.02-.008-.03.003-.004.01 0 .012-.003m12.957.608C77.97 6.055 74.4 3.984 70.5 2.63 67.144 1.468 63.543.837 59.794.837c-4.826 0-9.409 1.047-13.536 2.927-7.741 3.529-13.875 9.988-16.995 17.97-1.456 3.724-2.255 7.78-2.255 12.024 0 4.276.816 8.359 2.295 12.107 11.636-1.197 38.065-6.878 55.38-33.476-1.124-1.32-2.321-2.576-3.639-3.702"/>
        <path fill="#1B1B38" d="M88.155 25.282c-.034-.018-.047-.06-.029-.093.018-.034.06-.046.093-.029.033.018.046.06.028.093-.017.034-.059.046-.092.029zm-.322-5.59c-.037.071-.124.098-.194.06-.071-.037-.097-.124-.06-.195.037-.07.124-.097.194-.06.07.038.098.125.06.195zm-.456 1.936c-.037-.02-.051-.067-.031-.105.02-.038.066-.052.104-.032.036.02.051.067.031.105-.02.037-.066.052-.104.032zm.004 2.054c-.037.07-.125.097-.195.06-.07-.038-.096-.125-.059-.196.038-.07.124-.097.194-.06.07.038.097.125.06.196zm-.508 2.763c-.046.086-.153.118-.238.072-.086-.046-.119-.153-.073-.239s.152-.119.239-.073c.085.046.118.153.072.24zm-.485-8.337c-.033-.017-.046-.06-.028-.093.017-.033.059-.046.092-.028.034.018.047.06.029.094-.018.033-.06.046-.093.027zm-.897 2.605c-.051-.028-.07-.091-.043-.143.027-.052.09-.071.143-.044.051.027.071.092.044.143-.029.051-.092.072-.144.044zm-.055 5.737c-.036.07-.124.098-.194.06-.07-.038-.097-.125-.059-.195.037-.07.124-.097.194-.06.07.037.097.125.06.195zm-.74-3.851c-.057.107-.19.148-.297.091-.107-.058-.148-.19-.09-.298.056-.107.189-.148.296-.09.107.056.148.19.091.297zm-.473 1.711c-.042-.022-.057-.074-.035-.115.022-.041.073-.057.115-.036.042.023.057.074.035.116-.022.042-.073.057-.115.035zm-1.41 1.96c-.05-.028-.07-.092-.043-.144.027-.052.091-.072.144-.045.05.028.07.092.044.144-.028.053-.093.072-.144.045zm.06 2.745c-.044.085-.148.116-.23.071-.085-.044-.117-.148-.073-.232.046-.085.15-.117.233-.072.084.045.116.15.07.233zm-.87-5.091c-.058.11-.196.153-.307.094-.11-.06-.153-.197-.093-.309.058-.111.196-.153.307-.094.11.06.152.197.093.309zM80.65 26.99c-.041.077-.136.106-.213.066-.076-.042-.106-.136-.065-.213.041-.077.136-.106.213-.065.076.04.106.136.065.212zm-.152 3.012c-.05-.027-.07-.09-.043-.141.026-.05.089-.07.14-.043.05.028.07.09.042.14-.026.051-.089.07-.139.044zm-.684-1.189c-.038-.02-.051-.067-.032-.104.021-.038.067-.052.104-.032.038.02.052.067.032.105-.02.037-.067.051-.104.031zm-.431 2.987c-.04.077-.136.106-.212.065-.077-.041-.106-.136-.066-.213.04-.077.136-.107.213-.066.076.041.105.137.065.214zm-1.053-1.62c-.038-.02-.052-.066-.032-.104.02-.038.067-.052.104-.032.038.02.051.066.032.105-.02.037-.067.05-.104.03zm-.713-.99c-.056.106-.189.147-.296.09-.107-.057-.148-.19-.09-.298.056-.108.189-.149.296-.092.107.058.148.192.09.3zm-.756 3.14c-.037-.02-.051-.067-.032-.105.02-.038.067-.052.104-.032.037.02.052.067.032.105-.02.037-.067.051-.104.031zm-1.826-.916c-.033-.018-.045-.06-.027-.094.017-.033.058-.046.092-.027.033.017.046.058.028.092-.017.034-.06.047-.093.029zm-.133 3.258c-.045-.024-.061-.078-.037-.123.022-.044.078-.06.121-.037.044.023.061.078.038.123-.023.043-.079.06-.122.037zm-.685-1.794c-.044-.023-.06-.078-.037-.123.023-.044.078-.06.122-.037.044.024.061.078.038.123-.024.044-.079.06-.123.037zM73.03 34.7c-.058.108-.19.149-.297.091-.107-.057-.148-.19-.09-.298.056-.107.189-.148.296-.091.107.058.147.19.09.298zm-.986-1.096c-.05-.027-.07-.09-.043-.14.026-.051.09-.07.14-.043.05.027.07.09.043.14-.027.051-.09.07-.14.043zm-1.358.672c-.037-.02-.05-.067-.031-.104.02-.038.067-.052.104-.033.038.02.052.068.032.105-.02.037-.067.052-.105.032zm-.138 2.164c-.044-.023-.06-.078-.037-.123.023-.044.078-.06.123-.037.043.023.06.078.037.123-.024.044-.079.06-.123.037zm-1.456-.336c-.047-.024-.065-.084-.04-.13.025-.048.084-.065.13-.04.047.025.065.084.04.13-.026.047-.083.065-.13.04zm-1.515 1.032c-.038.069-.125.096-.195.059-.07-.038-.096-.125-.059-.194.038-.07.123-.096.194-.06.07.037.096.124.06.195zm-3.236 1.602c-.034-.018-.047-.06-.029-.093s.06-.046.093-.028c.033.017.046.059.028.092-.017.034-.059.047-.092.029zm-.837.257c-.053-.029-.072-.093-.044-.145.027-.052.092-.072.143-.044.053.027.072.093.044.144-.026.052-.092.072-.143.045zM89.396 22.74c.058-.108.19-.148.298-.091.106.057.147.19.09.298-.057.107-.19.148-.296.091-.108-.058-.148-.19-.092-.298zm1.761 1.434c-.546-1.804-1.23-3.547-2.06-5.204-.605-1.203-1.302-2.348-2.043-3.462l-2.158 3.01C76.61 29.67 66.731 36.855 57.39 41.481c9.78-2.33 20.53-6.786 30.86-14.888l2.907-2.42z"/>
        <path fill="#1B1B38" d="M91.43 34.338c-.044.083-.147.115-.229.07-.083-.044-.115-.147-.07-.23.043-.083.146-.115.23-.07.082.044.113.146.07.23m-.482-3.102c-.037-.02-.051-.065-.031-.102.018-.036.064-.05.1-.03.036.019.05.065.031.1-.019.037-.065.05-.1.032m-.478 6.47c-.06-.032-.083-.106-.052-.166.032-.06.106-.082.165-.05.06.031.083.106.051.165-.031.06-.105.083-.164.051m-.478 4.475c-.038.071-.126.099-.198.06-.07-.038-.097-.126-.06-.198.039-.071.127-.098.198-.06.071.038.098.127.06.198m-1.016-8.265c-.054-.028-.074-.096-.046-.15.028-.054.096-.075.15-.046.053.03.074.096.045.15-.028.055-.095.076-.15.046m-.615 5.99c-.044-.024-.06-.079-.037-.123s.078-.061.122-.038c.044.024.06.08.038.123-.024.044-.079.061-.123.038m-.2-3.673c-.1-.054-.137-.18-.083-.28.052-.102.177-.14.279-.086.1.053.14.179.085.28-.053.101-.18.14-.28.086m-.438 8.428c-.045.084-.149.116-.233.071-.083-.044-.115-.149-.07-.233.043-.084.148-.116.232-.071.083.045.115.148.07.233m-.267 2.664c-.06-.032-.082-.106-.05-.166.032-.06.106-.082.165-.05.06.031.083.106.05.165-.03.061-.105.083-.165.051M87.22 33.31c.061-.116.204-.16.319-.098.115.061.159.204.097.32-.06.115-.203.16-.32.097-.113-.06-.157-.204-.096-.32m-.561 8.093c-.033-.017-.045-.057-.027-.09.017-.032.057-.044.09-.027.032.017.043.057.027.09-.018.032-.058.044-.09.027m-.858-2.56c-.048.092-.162.126-.253.077-.091-.048-.126-.162-.077-.254.048-.091.162-.126.253-.078.091.049.126.162.077.254m-.413 9.462c-.051-.027-.072-.092-.044-.144.027-.05.091-.07.143-.044.052.028.07.093.043.144-.026.052-.09.071-.142.044m.055-5.37c.032.018.045.058.028.09-.017.032-.057.045-.09.028-.032-.017-.044-.058-.027-.09.017-.032.057-.045.089-.028m-.252-7.647c-.065.123-.217.17-.34.105-.123-.065-.17-.219-.105-.342.066-.123.218-.17.34-.104.123.065.17.218.105.341m-.045 9.957c-.038.073-.128.1-.2.061-.073-.037-.1-.128-.062-.2.038-.073.129-.1.2-.062.073.038.1.129.062.201m-.592 2.941c-.054-.028-.075-.096-.046-.15.029-.054.096-.075.15-.046.053.03.074.096.046.151-.029.054-.097.075-.15.045m.084 2.92c-.054.101-.18.14-.28.085-.1-.053-.139-.179-.085-.28.053-.101.178-.14.279-.085.1.053.14.18.086.28m-1.245-9.336c-.045.085-.152.118-.238.072s-.118-.153-.073-.239c.046-.086.152-.119.24-.073.084.045.117.153.07.24m-.99-4.172c-.048-.025-.065-.083-.04-.13s.083-.065.13-.04.065.083.04.13c-.026.047-.083.065-.13.04m-.2 15.354c-.048.092-.16.127-.253.077-.09-.048-.125-.162-.077-.253.05-.092.162-.127.253-.078.091.05.126.162.078.254m-.239 2.617c-.032-.018-.045-.058-.028-.09.018-.032.058-.045.09-.027.033.017.045.057.027.09-.017.031-.057.044-.089.027m-.18-7.996c.056-.107.189-.148.296-.09.107.056.148.19.091.297-.057.108-.19.148-.297.091-.107-.057-.148-.19-.09-.298m.085-2.239c.052.027.071.091.044.143-.028.052-.091.071-.144.044-.05-.028-.07-.092-.043-.144.028-.051.092-.071.143-.043m-.166-3.694c.037-.07.125-.097.195-.06.07.037.096.125.06.195-.038.07-.125.097-.196.06-.07-.037-.096-.125-.06-.195m-.36-.78c-.04-.02-.057-.072-.034-.114.021-.042.072-.058.114-.035.042.022.057.074.035.115-.022.042-.073.057-.114.035m-.603 9.68c-.041-.023-.056-.074-.035-.115.022-.042.074-.057.115-.036.041.022.057.074.035.116-.022.042-.073.057-.115.035m-1.001-7.08c-.053-.028-.072-.092-.045-.144.028-.053.092-.072.144-.045.051.028.071.092.045.144-.029.052-.093.072-.144.045m-.07 3.602c-.038.07-.125.096-.195.06-.07-.039-.097-.126-.06-.197.038-.07.124-.097.195-.06.07.038.097.126.06.197m-1.145-7.815c-.06.112-.197.154-.307.095-.11-.06-.153-.197-.094-.309.059-.11.196-.153.306-.093.111.058.154.196.095.307m-.187 5.837c-.053.1-.18.14-.28.085-.1-.054-.138-.179-.085-.28.053-.102.178-.14.28-.086.1.054.14.18.085.28m-.954-3.244c-.037.07-.125.098-.195.06-.07-.038-.097-.125-.06-.196.038-.07.125-.096.195-.06.07.039.097.126.06.196m1.97 14.458c-.066.123-.219.17-.34.104-.124-.065-.17-.218-.104-.342.065-.123.216-.17.34-.104.121.066.169.218.104.342m-.39 2.492c-.033-.018-.045-.058-.028-.09.017-.033.057-.045.09-.028.031.017.044.057.027.09-.018.033-.058.045-.09.028m-.49-3.899c-.045.083-.148.115-.23.07-.083-.044-.115-.148-.07-.23.043-.083.147-.115.228-.07.084.044.115.147.071.23m-1.908 3.716c-.046-.025-.064-.083-.04-.13.026-.046.083-.065.13-.04.046.025.065.083.039.13-.024.048-.083.065-.13.04m-1.657 2.038c-.041-.022-.056-.074-.035-.116.022-.04.074-.057.115-.035.041.023.057.074.035.115-.022.042-.073.057-.115.036m-.554-5.6c-.06-.03-.082-.105-.05-.166.03-.059.104-.082.165-.05.058.032.08.106.05.165-.032.06-.106.083-.165.051m-.61 2.469c-.045-.026-.063-.084-.038-.131s.082-.065.13-.04c.046.025.064.083.039.13s-.083.065-.13.04m-1.057 2.745c-.058.111-.196.153-.306.094-.111-.059-.154-.197-.095-.308.06-.111.197-.153.308-.095.11.06.152.197.093.309m-.875-3.632c-.032-.017-.045-.057-.027-.09.016-.032.056-.044.089-.027.032.017.044.057.027.09-.017.032-.057.044-.089.027m-.45 5.87c-.052-.028-.072-.093-.045-.144.029-.052.092-.072.144-.045.051.029.07.093.043.144-.027.052-.09.071-.143.044m-1.615-1.947c-.051-.027-.07-.093-.044-.144.028-.051.092-.072.144-.044.051.028.07.092.043.144-.028.052-.09.071-.143.044m-.148-6.88c-.054.102-.178.14-.28.087-.1-.054-.138-.18-.085-.28.054-.102.178-.14.28-.087.1.055.138.18.085.28m-.093 3.82c-.039.072-.13.1-.202.062-.072-.039-.1-.13-.06-.201.038-.073.128-.102.2-.063.073.04.1.13.062.202m-.593 2.94c-.054-.028-.074-.095-.046-.15.029-.053.096-.074.15-.045.054.028.075.096.045.15-.028.055-.095.075-.149.046m-.759 3.296c-.037.07-.124.098-.194.06-.07-.038-.097-.125-.06-.195.038-.07.125-.098.195-.06.07.037.097.125.06.195m-1.085-12.427c-.054-.028-.074-.095-.046-.15.028-.054.096-.074.15-.046.054.029.075.097.045.15-.028.055-.095.076-.15.046m2.734 3.88c.032.017.045.057.027.09-.017.032-.057.045-.088.027-.033-.016-.045-.057-.028-.09.017-.032.057-.044.09-.027m-3.244-7.082c-.045.085-.152.119-.238.073-.085-.046-.118-.153-.073-.24.046-.086.153-.118.238-.072.086.045.119.152.073.24m-.03 11.926c-.057.107-.19.148-.296.09-.107-.057-.147-.19-.092-.297.058-.108.19-.149.298-.092.107.058.147.191.09.299m-.302-2.447c.052.028.072.091.044.143-.027.051-.091.072-.142.045-.053-.029-.072-.092-.044-.144.027-.052.09-.071.142-.044m-.165-3.694c.038-.07.124-.096.194-.06.07.038.097.125.06.196-.038.07-.125.097-.195.06-.07-.038-.096-.125-.059-.196m-.17-9.365c-.102-.054-.14-.18-.086-.28.054-.101.178-.14.279-.086.1.053.139.179.086.28-.055.101-.179.14-.28.086m-.94 20.102c-.052-.027-.071-.091-.044-.144.027-.05.091-.071.143-.043.051.027.071.092.044.143-.028.052-.092.072-.143.044m-.479-14.861c-.04-.022-.056-.074-.035-.115.023-.042.074-.058.115-.035.042.022.057.073.035.115-.021.042-.073.057-.115.035m-.2 12.82c-.045.086-.151.12-.237.073-.086-.045-.12-.152-.074-.24.046-.085.153-.117.239-.072.086.046.118.153.072.24m-.406-3.466c.028-.052.092-.072.144-.044.05.027.07.092.044.143-.028.053-.093.072-.143.044-.052-.027-.071-.092-.045-.143m-.07-6.852c.018-.033.058-.045.09-.028.032.017.045.058.028.09-.018.033-.058.045-.09.028-.033-.018-.045-.058-.028-.09m-1.44-6.485c-.045.085-.153.119-.239.073-.085-.046-.118-.154-.073-.24.046-.086.153-.119.24-.072.084.046.117.152.072.239m-.495 8.013c-.051-.027-.07-.092-.044-.143.028-.053.092-.072.144-.044.05.027.07.091.044.143-.029.052-.092.072-.144.044m-.294 11.182c-.05-.028-.07-.092-.043-.144.027-.051.092-.072.142-.044.053.028.072.092.045.143-.028.053-.091.072-.144.045m-.089-4.128c.027-.05.088-.07.14-.043.05.027.07.09.042.14-.027.051-.09.07-.14.043-.05-.027-.07-.09-.042-.14m-.074-4.706c.042-.077.136-.106.213-.064.076.04.106.136.065.213-.04.077-.136.105-.212.065-.077-.042-.107-.136-.066-.214m-.047-5.547c.04-.073.129-.1.201-.062.073.038.1.128.062.201-.039.073-.13.1-.201.062-.073-.038-.1-.129-.062-.201m.56-2.17c.032.017.044.057.027.09-.017.032-.057.045-.088.027-.033-.017-.045-.058-.028-.09.017-.032.057-.045.09-.027m2.278 7.095c.052.027.072.092.045.143-.028.053-.092.072-.145.045-.05-.027-.07-.092-.043-.144.028-.053.092-.072.143-.044m-5.354 2.23c-.057.108-.19.148-.296.092-.108-.057-.148-.19-.091-.298.056-.107.189-.148.296-.09.107.055.148.19.091.296m-.599-6.74c-.05-.028-.07-.092-.043-.144.027-.051.09-.07.142-.043.052.027.072.091.044.143-.027.051-.091.071-.143.044m-.045 3.101c.02-.037.067-.052.104-.032.038.02.052.067.032.104-.02.038-.067.052-.104.033-.037-.021-.052-.068-.032-.105m.036 9.127c-.052-.028-.07-.092-.043-.144.027-.052.09-.071.142-.044.052.027.072.092.043.143-.026.053-.09.072-.142.045m-.14-2.644c-.042.079-.14.108-.218.067-.078-.042-.108-.14-.066-.218.041-.079.139-.109.217-.067.079.042.109.14.067.218m-.198-14.395c.041.023.057.075.035.116-.022.041-.074.058-.115.035-.041-.022-.057-.074-.035-.115.022-.04.074-.058.115-.036m-1.16 18.977c-.045.087-.153.12-.238.073-.086-.046-.12-.153-.073-.238.045-.087.152-.12.238-.074.085.046.118.153.073.24m-.525-16.227c-.051-.028-.07-.093-.043-.144.028-.053.092-.072.143-.045.052.028.072.092.045.144-.028.052-.092.072-.145.045m.118 2.77c-.053.1-.178.139-.28.085-.1-.053-.138-.179-.085-.28.054-.101.18-.14.28-.086.1.054.14.179.085.28m-.493 8.697c-.052-.027-.071-.092-.044-.143.028-.053.091-.072.143-.044.051.026.07.09.044.143-.028.052-.092.072-.143.044m-.242-3.06c-.038.073-.128.1-.2.062-.073-.038-.1-.13-.062-.202.039-.071.128-.1.2-.061.073.038.101.13.062.201m-.593 2.941c-.053-.028-.074-.095-.045-.15.029-.054.095-.074.15-.045.054.028.075.096.045.15-.028.054-.095.075-.15.045m-.18 2.721c-.038.07-.125.097-.195.06-.07-.038-.096-.125-.06-.195.038-.07.125-.097.195-.06.07.038.097.125.06.195m-.557-15.809c-.037.07-.124.097-.194.06-.07-.037-.098-.125-.06-.195.037-.072.124-.097.195-.06.07.037.096.125.059.195m-.423 6.671c-.045.087-.152.12-.238.073-.086-.046-.118-.153-.072-.238.045-.087.152-.12.238-.074s.118.153.072.24m-.392-3.206c.027-.05.09-.07.14-.043.05.028.07.09.042.14-.026.052-.089.07-.14.043-.05-.026-.069-.09-.042-.14m-.83 9.217c-.057.107-.19.148-.297.09-.107-.057-.147-.19-.09-.297.056-.108.19-.15.296-.092.107.058.148.19.09.299m-.3-2.447c.05.027.07.091.043.143-.027.051-.091.071-.143.044-.052-.028-.072-.093-.043-.144.026-.051.09-.07.142-.043m-.166-3.694c.038-.07.125-.097.195-.06.07.038.096.125.06.195-.038.07-.125.097-.195.06-.07-.038-.097-.125-.06-.195m-.107-4.275c.02-.037.067-.051.104-.032.038.021.052.067.032.105-.02.037-.067.052-.104.031-.037-.019-.052-.067-.032-.104m1.475-.092c.04-.077.136-.106.213-.065.077.041.105.136.064.213-.04.078-.135.106-.211.065-.078-.04-.106-.136-.066-.213m2.372 5.663c.033.017.045.057.028.09-.018.032-.058.045-.09.027-.032-.018-.043-.058-.027-.09.018-.032.057-.045.09-.027m-4.823 8.284c-.052-.027-.07-.09-.044-.144.027-.05.091-.07.143-.044.052.029.07.093.043.144-.027.052-.091.072-.142.044m-.528-10.564c-.042-.022-.057-.074-.035-.116.022-.04.073-.057.114-.035.041.023.057.074.036.116-.022.041-.074.056-.115.035m-.355 2.804c-.051-.028-.071-.092-.043-.143.027-.053.09-.072.143-.045.052.028.071.092.045.144-.028.052-.093.072-.145.044m-1.41-.56c-.041.077-.136.106-.213.065-.077-.04-.106-.136-.065-.213.04-.077.136-.107.213-.066.076.041.105.137.065.214m-.541 5.606c-.109-.037-.166-.156-.129-.264.038-.108.155-.166.263-.128.108.037.165.155.128.264-.036.108-.155.166-.262.128m-.769-3.18c-.05-.026-.07-.09-.043-.14.028-.05.09-.07.14-.043.05.028.07.09.043.14-.027.052-.09.07-.14.043m-.905 1.104c-.034-.01-.052-.05-.04-.084.011-.035.049-.053.084-.04.034.011.052.049.04.084-.011.034-.05.053-.084.04m-.535 3.402c-.115-.04-.175-.165-.136-.28.039-.115.164-.176.279-.137.114.04.176.165.136.28-.04.116-.164.177-.279.137m-.221-6.63c.02-.039.066-.052.104-.033.037.02.052.067.032.105-.02.038-.067.052-.105.032-.037-.02-.051-.067-.031-.105m-1.543 5.082c-.055-.02-.084-.08-.065-.135.019-.055.08-.085.134-.066.055.02.085.08.066.134-.019.057-.08.086-.135.067M43.16 57.42c-.078-.026-.119-.11-.093-.188.027-.078.112-.12.188-.093.079.027.12.111.093.19-.027.077-.11.119-.188.091m-.925-2.383c-.05-.026-.07-.09-.043-.14.027-.05.09-.07.14-.043.05.027.07.09.043.14-.027.052-.09.07-.14.043m-.59 5.044c-.035-.012-.053-.05-.041-.084.011-.035.049-.053.084-.04.034.01.052.048.04.083-.01.034-.048.054-.083.041m-.657-1.455c-.108-.037-.165-.156-.128-.264.037-.108.155-.166.263-.129.107.038.165.156.128.265-.037.107-.155.166-.263.128m-1.093-8.21c-.044-.023-.06-.077-.037-.122s.078-.06.122-.038c.045.023.061.08.038.123-.023.044-.078.061-.123.038m-.154 5.29c-.034-.012-.052-.05-.04-.084.011-.035.049-.054.084-.042.034.013.052.05.04.085-.011.035-.049.052-.084.041m-1.56-6.749c-.061.117-.206.16-.321.098-.115-.062-.16-.206-.098-.321.06-.116.205-.16.32-.1.117.063.16.207.1.323m-.384 7.228c-.036-.02-.05-.064-.03-.101.018-.036.064-.051.1-.031.037.019.05.065.03.101-.018.037-.063.05-.1.031m-.083-2.64c.026-.052.089-.07.14-.043.05.026.07.088.043.14-.027.05-.09.07-.14.043-.05-.028-.07-.09-.043-.14m-.3-2.134c-.05-.027-.069-.09-.042-.141.027-.051.09-.07.14-.044.05.027.07.09.042.141-.026.051-.089.07-.14.044m-1.675 2.456c-.053.101-.178.14-.279.086-.1-.054-.139-.179-.086-.28.055-.101.18-.14.28-.086.101.054.139.179.085.28m-.559-2.346c-.036-.02-.05-.065-.03-.101.019-.036.064-.05.1-.031.037.02.051.065.032.101-.02.036-.065.05-.102.031m-.372-1.417c-.034-.018-.046-.06-.029-.093.018-.034.06-.046.093-.029.033.018.046.06.028.093-.017.034-.059.047-.092.029m-2.634-.904c-.045.084-.149.116-.233.072-.083-.045-.115-.15-.07-.234.044-.084.148-.116.232-.07.083.044.115.148.07.232m59.937-21c-5.81 4.783-11.769 8.42-17.634 11.174l5.15 14.156h-5.16c-2.372 0-4.477-1.526-5.223-3.787l-2.387-7.239c-5.185 1.834-10.202 3.037-14.874 3.796l-1.194 3.497c-.762 2.233-2.853 3.733-5.204 3.733H40.37l2.25-6.213c-5.139.286-9.52.086-12.796-.22.088.2.169.404.261.602 1.499 3.213 3.498 6.142 5.898 8.688 3.812 4.042 8.635 7.114 14.061 8.809 3.08.962 6.355 1.48 9.75 1.48 4.755 0 9.274-1.016 13.352-2.845 4.74-2.124 8.887-5.346 12.118-9.344 2.677-3.31 4.725-7.152 5.965-11.344.88-2.976 1.352-6.126 1.352-9.388 0-1.894-.164-3.748-.47-5.555"/>
    </g>
</svg>
