<svg xmlns="http://www.w3.org/2000/svg" width="32" height="32" viewBox="0 0 32 32">
    <defs>
        <linearGradient id="a" x1="43.071%" x2="43.071%" y1="9.09%" y2="366.479%">
            <stop offset="0%" stop-color="#3023AE"/>
            <stop offset="30.694%" stop-color="#53A0FD"/>
            <stop offset="100%" stop-color="#B4EC51"/>
        </linearGradient>
    </defs>
    <g fill="none" fill-rule="evenodd">
        <rect width="32" height="32" fill="url(#a)" rx="4"/>
        <path fill="#FFF" d="M8.613 25.922l3.729-3.75a7.554 7.554 0 0 0 3.978 1.126c4.196 0 7.597-3.406 7.597-7.608 0-4.2-3.401-7.607-7.597-7.607a7.596 7.596 0 0 0-6.943 4.522l-1.143-.862c.11-.228.155-.446.155-.716A1.752 1.752 0 0 0 6 9.394v-.06A3.333 3.333 0 0 1 9.333 6h13.334A3.333 3.333 0 0 1 26 9.333v13.334A3.333 3.333 0 0 1 22.667 26H9.333c-.247 0-.488-.027-.72-.078zm-1.166-.507a3.352 3.352 0 0 1-.85-.843l3.913-3.982c.266.316.558.61.872.88l-3.935 3.945zM6.085 23.42A3.344 3.344 0 0 1 6 22.667V12.659a1.738 1.738 0 0 0 1.379-.045l1.57 1.236a7.652 7.652 0 0 0-.225 1.84c0 1.455.407 2.813 1.113 3.967L6.085 23.42zm10.235-1.28a6.444 6.444 0 0 1-6.382-7.3l1.296 1.298a1.752 1.752 0 0 0 1.585 2.495 1.752 1.752 0 0 0 1.551-2.563l1.161-1.163a1.74 1.74 0 0 0 1.505.035l1.199 1.2a1.75 1.75 0 1 0 3.236 1.32h1.04a6.443 6.443 0 0 1-6.19 4.678zm-2.938-5.26a.594.594 0 1 1-1.187.001.594.594 0 0 1 1.187-.001zm3.501-3.537a.593.593 0 1 1-1.186.001.593.593 0 0 1 1.186 0zm2.909 4.131a.594.594 0 1 1 .001-1.188.594.594 0 0 1-.001 1.188zM16.32 9.242a6.444 6.444 0 0 1 6.411 7.038h-1.266a1.75 1.75 0 0 0-1.643-1.154c-.272 0-.529.064-.758.175l-1.177-1.18a1.752 1.752 0 1 0-3.169-.073l-1.215 1.217a1.74 1.74 0 0 0-1.438.033l-1.8-1.803a6.443 6.443 0 0 1 6.055-4.253zm-9.712 2.38a.594.594 0 1 1 .001-1.19.594.594 0 0 1-.001 1.19z"/>
    </g>
</svg>
