<svg xmlns="http://www.w3.org/2000/svg" width="32" height="32" viewBox="0 0 32 32">
    <defs>
        <linearGradient id="a" x1="50%" x2="50%" y1="0%" y2="100%">
            <stop offset="0%" stop-color="#F5515F"/>
            <stop offset="100%" stop-color="#9F041B"/>
        </linearGradient>
    </defs>
    <g fill="none" fill-rule="evenodd">
        <rect width="32" height="32" fill="url(#a)" rx="4"/>
        <path fill="#FFF" d="M9.333 6h13.334A3.333 3.333 0 0 1 26 9.333v13.334A3.333 3.333 0 0 1 22.667 26H9.333A3.333 3.333 0 0 1 6 22.667V9.333A3.333 3.333 0 0 1 9.333 6zm13.943 11.014a7.628 7.628 0 0 0-.06-2.354.33.33 0 0 1 .096-.296l.869-.836-.85-1.948-1.204.09a.328.328 0 0 1-.288-.133 6.778 6.778 0 0 0-1.692-1.616.33.33 0 0 1-.147-.283l.036-1.207-1.975-.764-.778.904a.328.328 0 0 1-.291.111 7.574 7.574 0 0 0-2.349.061.327.327 0 0 1-.296-.096l-.834-.871-1.942.851.088 1.208a.33.33 0 0 1-.132.289 6.78 6.78 0 0 0-1.612 1.696.329.329 0 0 1-.282.146l-1.204-.035-.762 1.98.902.78a.33.33 0 0 1 .11.292 7.633 7.633 0 0 0 .061 2.354.33.33 0 0 1-.095.297l-.87.835.85 1.948 1.204-.09a.328.328 0 0 1 .289.134 6.775 6.775 0 0 0 1.692 1.615.33.33 0 0 1 .146.283l-.036 1.207 1.975.764.778-.904a.328.328 0 0 1 .291-.111 7.582 7.582 0 0 0 2.349-.06c.108-.02.22.015.296.095l.834.871 1.942-.851-.088-1.208a.33.33 0 0 1 .132-.288 6.783 6.783 0 0 0 1.611-1.697.327.327 0 0 1 .283-.146l1.204.035.762-1.98-.901-.78a.33.33 0 0 1-.112-.292zm-7.298 4.872c-3.238 0-5.872-2.641-5.872-5.887 0-3.246 2.634-5.887 5.872-5.887s5.873 2.64 5.873 5.887c0 3.246-2.635 5.887-5.873 5.887zm1.852-4.89c-.55.64-1.389.95-2.221.825a2.42 2.42 0 0 1-1.484-.825 1.259 1.259 0 0 0-1.103 1.247v2.064c.862.58 1.861.92 2.956.92a5.24 5.24 0 0 0 2.956-.92v-2.064a1.26 1.26 0 0 0-1.104-1.247zm-1.853-6.226c-2.876 0-5.216 2.346-5.216 5.229 0 1.423.58 2.785 1.605 3.77v-1.526a1.918 1.918 0 0 1 1.912-1.915c.105 0 .203.05.265.134a1.779 1.779 0 0 0 2.87 0 .328.328 0 0 1 .264-.134 1.918 1.918 0 0 1 1.914 1.915v1.527a5.236 5.236 0 0 0 1.604-3.771c0-2.884-2.342-5.229-5.218-5.229zm.001 5.505a2.089 2.089 0 0 1-2.086-2.09c0-1.156.934-2.092 2.086-2.092a2.09 2.09 0 1 1 0 4.182zm1.429-2.09a1.43 1.43 0 0 0-1.429-1.433c-.79 0-1.43.64-1.43 1.432a1.43 1.43 0 0 0 2.858 0z"/>
    </g>
</svg>
