<svg xmlns="http://www.w3.org/2000/svg" width="32" height="32" viewBox="0 0 32 32">
    <defs>
        <linearGradient id="a" x1="50%" x2="50%" y1="0%" y2="100%">
            <stop offset="0%" stop-color="#FAD961"/>
            <stop offset="100%" stop-color="#F76B1C"/>
        </linearGradient>
    </defs>
    <g fill="none" fill-rule="evenodd">
        <rect width="32" height="32" fill="url(#a)" rx="4"/>
        <path fill="#FEFEFE" d="M15.746 6C21.16 6 25.595 10.067 26 15.229c-2.146.471-4.07.834-5.786 1.101L19.02 9.167h-3.398l-4.119 7.698c-5.837-.287-5.735-3.924-4.919-5.415.038-.07.073-.143.113-.213l.004-.007v-.001c1.657-2.96 4.807-5.016 8.468-5.213.19-.008.381-.016.576-.016zM7.989 22.566A9.919 9.919 0 0 1 6 19.203c3.136.294 8.401-.182 16.816-2.048L7.99 22.565zm6.19-5.633l2.566-5.095h.168l.611 4.853a40.505 40.505 0 0 1-3.346.242zM15.745 26c-2.314 0-4.446-.745-6.164-1.998l8.304-3.496.285 2.076 2.852-.89-.39-2.342 5.34-2.27c-.554 5.014-4.92 8.92-10.227 8.92z"/>
    </g>
</svg>
