<svg xmlns="http://www.w3.org/2000/svg" width="109" height="126" viewBox="0 0 109 126">
    <path fill="#FFF" fill-rule="evenodd" d="M81.93 82.634c.463 0 .927.072.927.072v3.426s-.464-.108-1.034-.108c-2.212 0-4.248 1.57-5.068 4.248a10.982 10.982 0 0 0-.468 3.248v7.676h-1.14c-1.604 0-2.282-.678-2.282-2.282l-.006-12.408c-.002-.008-.002-.018-.002-.026v-3.844H73.9c.084 0 .156.01.236.014.1.002.196.008.29.016.01.002.022.002.034.002 1.238.12 1.792.772 1.828 2.122v2.368c.892-2.552 2.926-4.524 5.642-4.524zm-74.444 8.32h7.532L12.27 83.28c-.466-1.32-1-3.534-1-3.534h-.072s-.5 2.214-.964 3.534l-2.748 7.674zM13.116 76l9.32 25.196h-1.708c-1.784 0-2.356-.428-2.928-2.068l-1.89-5.176H6.63l-1.892 5.176c-.606 1.64-1.178 2.068-2.96 2.068H0l1.268-3.412c.088-.112.16-.254.224-.442L9.378 76h3.738zm76.536 8.79v16.406h-1.138c-1.606 0-2.284-.678-2.284-2.282l-.01-16.268h1.15c1.56 0 2.242.64 2.282 2.144zm14.926 7.877v-.606h-.892c-2.606 0-7.316.144-7.316 3.462 0 1.462 1.104 2.89 3.39 2.89 2.926 0 4.818-3.068 4.818-5.746zm3.444 4.562v3.54h-1.018c-1.606 0-2.248-.786-2.248-2.07 0-.606.072-1.072.072-1.072h-.072s-1.428 3.57-5.746 3.57c-3.106 0-6.14-1.892-6.14-5.496 0-5.818 7.852-6.174 10.886-6.174h.784v-.178c0-3.176-1.176-4.318-3.996-4.318-.856 0-2.962.212-2.962 1.39v1.036h-3.248v-1.784c0-2.964 4.498-3.39 6.246-3.39 5.854 0 7.424 3.068 7.424 7.066v7.674c0 .074.008.142.018.206zM87.935 76.001a1.713 1.713 0 1 1-1.714 1.712c0-.946.766-1.712 1.714-1.712zM50.953 98.106v3.056a10.05 10.05 0 0 1-.856.034c-2.284 0-6.888-.714-6.888-6.744v-9.03h-2.356V82.64h2.428v-4.606h3.39v4.606h4.282v2.782H46.67v8.638c0 3.602 2.498 4.068 3.82 4.068a4.9 4.9 0 0 0 .462-.022zM26.107 95.7s2.14 2.678 5.458 2.678c1.678 0 3.142-.75 3.142-2.32 0-3.248-9.85-2.892-9.85-8.71 0-3.46 3.034-5.066 6.708-5.066 2.178 0 5.926.748 5.926 3.498v1.712h-3.104V86.6c0-1.07-1.606-1.534-2.714-1.534-2.032 0-3.356.714-3.356 2.14 0 3.428 9.852 2.678 9.852 8.708 0 3.214-2.854 5.282-6.638 5.282-4.818 0-7.21-3.176-7.21-3.176l1.786-2.32zm39.951-6.066c-.108-2.998-1.998-4.604-4.246-4.604-2.64 0-4.784 1.606-5.318 4.604h9.564zm-4.21-7.352c5.068 0 7.78 3.784 7.78 8.458 0 .464-.108 1.428-.108 1.428H56.35c.216 3.854 3 6.032 6.212 6.032 3.104 0 5.282-2.108 5.282-2.108l1.498 2.464s-2.676 2.64-6.96 2.64c-5.708 0-9.6-4.104-9.6-9.456 0-5.746 3.926-9.458 9.066-9.458zm28.706 35.138c-.064-1.701-1.101-2.494-2.316-2.494-1.361 0-2.544.857-2.803 2.494h5.119zM88.27 114c2.25 0 3.4 1.736 3.4 3.759 0 .195-.03.568-.03.568h-6.252c.047 2.09 1.472 3.225 3.158 3.225 1.49 0 2.477-.988 2.477-.988l.502.84s-1.183 1.136-3.011 1.136c-2.432 0-4.26-1.751-4.26-4.262 0-2.673 1.813-4.278 4.016-4.278zm-68.321 7.6c1.555 0 2.494-1.62 2.494-3.03v-.356h-.472c-1.277 0-3.837.047-3.837 1.847 0 .76.6 1.538 1.815 1.538zm2.04-4.293h.454v-.212c0-1.57-.86-2.104-2.025-2.104-1.344 0-2.3.776-2.3.776l-.52-.84s1.07-.926 2.901-.926c1.959 0 3.045 1.086 3.045 3.128v5.216h-1.052v-.891c0-.405.03-.682.03-.682h-.03s-.681 1.766-2.723 1.766c-1.361 0-2.769-.793-2.769-2.41 0-2.756 3.579-2.82 4.989-2.82zm9.831.113c-.064-1.701-1.101-2.494-2.316-2.494-1.361 0-2.544.857-2.803 2.494h5.119zM29.538 114c2.25 0 3.4 1.736 3.4 3.759 0 .195-.032.568-.032.568h-6.252c.047 2.09 1.472 3.225 3.158 3.225 1.492 0 2.48-.988 2.48-.988l.5.84s-1.182 1.136-3.012 1.136c-2.43 0-4.26-1.751-4.26-4.262 0-2.673 1.813-4.278 4.018-4.278zm5.505.196h1.086v1.442c0 .358-.032.65-.032.65h.032c.388-1.233 1.294-2.171 2.576-2.171.225 0 .437.047.437.047v1.086s-.195-.032-.405-.032c-1.15 0-2.01.906-2.366 2.104a5.417 5.417 0 0 0-.225 1.588v3.435h-1.103v-8.15zm9.379 7.355c1.748 0 3.174-1.425 3.174-3.321 0-1.847-1.425-3.225-3.174-3.225-1.749 0-3.174 1.378-3.174 3.225 0 1.896 1.425 3.321 3.174 3.321zm0-7.549c2.38 0 4.31 1.813 4.31 4.228 0 2.462-1.93 4.31-4.31 4.31s-4.31-1.848-4.31-4.31c0-2.415 1.93-4.228 4.31-4.228zm6.3 6.562s.91.987 2.43.987c.875 0 1.636-.437 1.636-1.296 0-1.783-4.389-1.344-4.389-4.003 0-1.455 1.312-2.252 2.786-2.252 1.716 0 2.511.894 2.511.894l-.501.842s-.697-.746-2.042-.746c-.827 0-1.62.356-1.62 1.262 0 1.8 4.39 1.314 4.39 4.003 0 1.329-1.15 2.284-2.787 2.284-1.976 0-3.011-1.183-3.011-1.183l.598-.792zm10.901 1.002c1.442 0 2.627-1.213 2.627-3.287 0-1.993-1.056-3.274-2.577-3.274-1.361 0-2.64.975-2.64 3.291 0 1.635.906 3.27 2.59 3.27zm-3.66-7.37h1.052v.796c0 .355-.03.632-.03.632h.03s.667-1.622 2.82-1.622c2.186 0 3.547 1.748 3.547 4.277 0 2.576-1.539 4.26-3.643 4.26-1.96 0-2.674-1.554-2.674-1.554h-.032s.032.29.032.712v3.887h-1.102v-11.387zM69.79 121.6c1.556 0 2.494-1.62 2.494-3.03v-.355h-.471c-1.277 0-3.838.047-3.838 1.847 0 .76.6 1.538 1.815 1.538zm2.04-4.292h.454v-.212c0-1.57-.86-2.104-2.025-2.104-1.343 0-2.3.776-2.3.776l-.52-.84s1.07-.926 2.902-.926c1.958 0 3.045 1.086 3.045 3.128v5.216h-1.053v-.891c0-.405.03-.682.03-.682h-.03s-.681 1.766-2.723 1.766c-1.36 0-2.769-.793-2.769-2.41 0-2.756 3.579-2.82 4.989-2.82zm7.808-3.306c1.993 0 2.98 1.168 2.98 1.168l-.567.827s-.907-.99-2.381-.99c-1.78 0-3.176 1.329-3.176 3.272 0 1.912 1.41 3.272 3.208 3.272 1.652 0 2.608-1.15 2.608-1.15l.501.861s-1.099 1.277-3.173 1.277c-2.415 0-4.277-1.731-4.277-4.26 0-2.511 1.879-4.277 4.277-4.277zM53.09 0c17.273 0 31.42 13.014 32.714 29.533-6.846 1.507-12.984 2.67-18.46 3.523l-3.806-22.922H52.7L39.56 34.77C20.937 33.85 21.262 22.21 23.867 17.44c.12-.226.233-.458.357-.682a.101.101 0 0 0 .014-.022l.001-.005C29.526 7.26 39.577.681 51.253.053 51.862.027 52.471 0 53.091 0zM28.347 53.01A31.765 31.765 0 0 1 22 42.249c10.005.942 26.803-.583 53.647-6.55l-47.3 17.313zM48.09 34.987l8.19-16.302h.536l1.949 15.528c-3.965.44-7.508.688-10.675.774zM53.091 64c-7.38 0-14.182-2.386-19.663-6.394L59.92 46.42l.911 6.645 9.098-2.85-1.246-7.496 17.036-7.264C83.952 51.502 70.02 64 53.09 64z"/>
</svg>
