<svg xmlns="http://www.w3.org/2000/svg" width="210" height="24" viewBox="0 0 210 24">
    <path fill="#FFF" fill-rule="evenodd" d="M37.405 16.241v2.247a8.217 8.217 0 0 1-.629.024c-1.677 0-5.056-.524-5.056-4.956V6.923h-1.73V4.877h1.782V1.495h2.489v3.382h3.144v2.046H34.26v6.345c0 2.648 1.834 2.989 2.803 2.989.132 0 .247-.007.34-.016zm-18.24-1.767s1.572 1.966 4.009 1.966c1.23 0 2.304-.55 2.304-1.704 0-2.386-7.23-2.124-7.23-6.398 0-2.544 2.227-3.724 4.926-3.724 1.598 0 4.348.551 4.348 2.571v1.258h-2.28v-.655c0-.787-1.178-1.128-1.99-1.128-1.494 0-2.463.525-2.463 1.573 0 2.518 7.232 1.967 7.232 6.399 0 2.36-2.097 3.88-4.874 3.88-3.537 0-5.292-2.334-5.292-2.334l1.31-1.704zm29.328-4.458c-.078-2.202-1.468-3.382-3.118-3.382-1.938 0-3.51 1.18-3.903 3.382h7.021zm-3.092-5.402c3.72 0 5.712 2.78 5.712 6.215 0 .34-.079 1.05-.079 1.05h-9.668c.158 2.831 2.202 4.43 4.56 4.43 2.28 0 3.877-1.547 3.877-1.547l1.1 1.81s-1.965 1.94-5.109 1.94c-4.19 0-7.047-3.016-7.047-6.949 0-4.222 2.882-6.949 6.654-6.949zM64.551 0a1.258 1.258 0 1 1-1.257 1.258C63.294.563 63.857 0 64.55 0zM5.496 10.987h5.529L9.007 5.349c-.34-.97-.733-2.596-.733-2.596H8.22S7.854 4.38 7.513 5.35l-2.017 5.638zM9.63 0l6.841 18.512h-1.253c-1.31 0-1.73-.315-2.149-1.52l-1.389-3.803H4.868L3.48 16.992c-.446 1.205-.866 1.52-2.176 1.52H0l.932-2.508c.064-.082.117-.185.163-.324L6.885 0h2.744zm56.183 6.458v12.054h-.835c-1.18 0-1.677-.498-1.677-1.678l-.007-11.952h.845c1.144 0 1.645.47 1.674 1.576zm10.956 5.787v-.446h-.654c-1.913 0-5.372.105-5.372 2.544 0 1.074.813 2.124 2.49 2.124 2.148 0 3.536-2.255 3.536-4.222zm2.528 3.351v2.602h-.747c-1.178 0-1.65-.577-1.65-1.521 0-.447.053-.787.053-.787h-.053s-1.048 2.622-4.217 2.622c-2.28 0-4.507-1.39-4.507-4.039 0-4.274 5.764-4.536 7.991-4.536h.576v-.13c0-2.334-.864-3.174-2.934-3.174-.628 0-2.174.158-2.174 1.023v.76h-2.385v-1.31c0-2.177 3.301-2.492 4.585-2.492 4.297 0 5.45 2.256 5.45 5.192v5.638c0 .056.004.106.012.152zM60.144 4.874c.34 0 .68.052.68.052v2.517s-.34-.078-.759-.078c-1.625 0-3.117 1.154-3.721 3.12a8.096 8.096 0 0 0-.342 2.386L56 18.512h-.836c-1.178 0-1.676-.498-1.676-1.678l-.004-9.117a.154.154 0 0 1-.002-.019V4.875h.766c.061 0 .114.007.172.01.074.002.145.005.214.011l.023.002c.91.088 1.318.568 1.343 1.56v1.739c.655-1.874 2.148-3.323 4.143-3.323zm53.31 5.142c-.078-2.202-1.467-3.382-3.117-3.382-1.939 0-3.51 1.18-3.904 3.382h7.022zm-3.091-5.402c3.72 0 5.711 2.78 5.711 6.215 0 .34-.078 1.05-.078 1.05h-9.667c.156 2.831 2.2 4.43 4.558 4.43 2.28 0 3.878-1.547 3.878-1.547l1.1 1.81s-1.965 1.94-5.109 1.94c-4.191 0-7.047-3.016-7.047-6.949 0-4.222 2.882-6.949 6.654-6.949zm96.36 5.402c-.078-2.202-1.467-3.382-3.118-3.382-1.938 0-3.51 1.18-3.903 3.382h7.02zm-3.091-5.402c3.72 0 5.71 2.78 5.71 6.215 0 .34-.078 1.05-.078 1.05h-9.668c.158 2.831 2.202 4.43 4.56 4.43 2.279 0 3.877-1.547 3.877-1.547l1.1 1.81s-1.965 1.94-5.108 1.94c-4.192 0-7.048-3.016-7.048-6.949 0-4.222 2.882-6.949 6.655-6.949zm-69.493 11.692c2.52 0 4.569-1.995 4.569-4.778 0-2.757-2.048-4.726-4.569-4.726-2.494 0-4.542 1.969-4.542 4.726 0 2.783 2.048 4.778 4.542 4.778zm0-11.71c3.965 0 7.168 2.914 7.168 6.932 0 4.043-3.203 6.984-7.168 6.984-3.964 0-7.141-2.941-7.141-6.984 0-4.018 3.177-6.932 7.141-6.932zm56.347 0c1.602 0 4.778.657 4.778 2.915v1.365h-2.31V8.14c0-.946-1.496-1.365-2.468-1.365-2.6 0-4.542 1.943-4.542 4.752 0 3.02 2.205 4.726 4.674 4.726 2.493 0 4.122-1.838 4.122-1.838l1.102 1.812s-1.89 2.284-5.408 2.284c-4.175 0-7.09-2.967-7.09-6.958 0-3.912 2.862-6.958 7.142-6.958zm-46.192 9.878s1.572 1.966 4.009 1.966c1.23 0 2.305-.55 2.305-1.704 0-2.386-7.231-2.124-7.231-6.398 0-2.544 2.227-3.724 4.926-3.724 1.598 0 4.349.551 4.349 2.571v1.258h-2.28v-.655c0-.787-1.18-1.128-1.99-1.128-1.495 0-2.464.525-2.464 1.573 0 2.518 7.231 1.967 7.231 6.399 0 2.36-2.096 3.88-4.873 3.88-3.537 0-5.292-2.334-5.292-2.334l1.31-1.704zm-52.31-3.487h5.528l-2.017-5.638c-.34-.97-.734-2.596-.734-2.596h-.052S94.342 4.38 94 5.35l-2.017 5.638zM96.116 0l6.842 18.512h-1.254c-1.31 0-1.73-.315-2.148-1.52l-1.389-3.803h-6.812l-1.387 3.803c-.447 1.205-.866 1.52-2.176 1.52h-1.304l.931-2.508c.063-.082.118-.185.164-.324L93.373 0h2.743zm82.53 12.245v-.446h-.655c-1.913 0-5.372.105-5.372 2.544 0 1.074.813 2.124 2.49 2.124 2.148 0 3.536-2.255 3.536-4.222zm2.527 3.351v2.602h-.747c-1.178 0-1.65-.577-1.65-1.521 0-.447.053-.787.053-.787h-.053s-1.048 2.622-4.217 2.622c-2.28 0-4.507-1.39-4.507-4.039 0-4.274 5.764-4.536 7.991-4.536h.576v-.13c0-2.334-.864-3.174-2.934-3.174-.628 0-2.174.158-2.174 1.023v.76h-2.385v-1.31c0-2.177 3.301-2.492 4.585-2.492 4.297 0 5.45 2.256 5.45 5.192v5.638c0 .056.004.106.012.152zM125.317 4.874c.34 0 .681.052.681.052v2.517s-.34-.078-.76-.078c-1.624 0-3.117 1.154-3.72 3.12a8.097 8.097 0 0 0-.343 2.386v5.641h-.836c-1.18 0-1.676-.498-1.676-1.678l-.005-9.117-.002-.019V4.875h.767c.06 0 .114.007.171.01.075.002.146.005.214.011l.024.002c.909.088 1.317.568 1.343 1.56v1.739c.655-1.874 2.148-3.323 4.142-3.323zm36.346 11.477c2.1 0 3.833-1.733 3.833-4.752 0-2.888-1.548-4.752-3.755-4.752-1.969 0-3.833 1.391-3.833 4.778 0 2.363 1.287 4.726 3.755 4.726zm.578-11.737c3.57 0 5.855 2.836 5.855 6.959 0 4.227-2.573 6.957-6.04 6.957-2.94 0-4.07-2.127-4.07-2.127h-.051s.052.474.052 1.156v5.907h-1.094c-.803 0-1.453-.65-1.453-1.453l-.007-17.083h.742c1.182 0 1.628.498 1.628 1.339 0 .394-.026.709-.026.709h.053s1.102-2.364 4.41-2.364z"/>
</svg>
