<svg xmlns="http://www.w3.org/2000/svg" width="32" height="32" viewBox="0 0 32 32">
    <defs>
        <linearGradient id="a" x1="43.071%" x2="43.071%" y1="9.09%" y2="366.479%">
            <stop offset="0%" stop-color="#3023AE"/>
            <stop offset="30.694%" stop-color="#53A0FD"/>
            <stop offset="100%" stop-color="#B4EC51"/>
        </linearGradient>
    </defs>
    <g fill="none" fill-rule="evenodd">
        <rect width="32" height="32" fill="url(#a)" rx="4"/>
        <path fill="#FEFEFE" d="M21.192 11.668l-6.291-.005.002 3.927c-1.355.495-2.721.964-4.096 1.404v-4.952c0-.713.124-1.312.371-1.796.248-.485.554-.883.92-1.194.367-.31.77-.535 1.21-.672.439-.137.842-.206 1.209-.206h4.066a2.609 2.609 0 0 1 2.61 2.609v.885zM22.522 6A3.489 3.489 0 0 1 26 9.478v2.734c-6.217 3.407-13.078 6.002-20 7.98V9.479A3.488 3.488 0 0 1 9.478 6h13.044zm-7.616 13.11c-.147.056 8.004-3.538 11.094-5.363v8.775A3.489 3.489 0 0 1 22.522 26H9.478A3.488 3.488 0 0 1 6 22.522v-.462c1.907-.527 5.049-1.546 4.853-1.48.041.305.11.602.216.887.173.476.42.886.741 1.234.32.348.71.622 1.167.823.458.202.971.302 1.54.302h4.066a2.609 2.609 0 0 0 2.61-2.609v-.881h-6.286V19.11z"/>
    </g>
</svg>
