<svg xmlns="http://www.w3.org/2000/svg" width="32" height="32" viewBox="0 0 32 32">
    <defs>
        <linearGradient id="a" x1="0%" x2="102%" y1="0%" y2="101%">
            <stop offset="0%" stop-color="#3023AE"/>
            <stop offset="100%" stop-color="#C86DD7"/>
        </linearGradient>
    </defs>
    <g fill="none" fill-rule="evenodd">
        <rect width="32" height="32" fill="url(#a)" rx="4"/>
        <path fill="#FFF" d="M6.841 22.864l5.126 1.327s-2.002-.962-1.848-4.532c0 0-.447.228-1.194.45-.506.116-1.192.21-2.092.214v2.344c0 .066.003.132.008.197zm-.008-4.111c2.002-.263 4.116-.976 6.101-2.463 5.558-4.163 8.439-4.133 9.33-3.973L7.068 8.273a2.49 2.49 0 0 0-.236 1.06v9.42zm4.394.124s-.134 1.183.296 2.547c.43 1.363 1.425 2.433 2.607 2.567 1.183.134 3.468-.856 4.678-4.118 1.21-3.262 0-5.722 0-5.722l-2.715 1.377c.564 1.01.484 1.658.47 1.952-.013.294-.242 3.249-2.473 3.462-2.231.214-2.19-2.473-2.19-2.473l-.673.408zm11.036-6.56l.308.082s-.1-.044-.308-.081zm-.525.955c-.995.05-1.882.37-1.882.37s1.344 2.915.188 6.231c0 0 3.038-1.284 4.005-3.663.968-2.38-1.317-2.988-2.311-2.938zM9.333 6h13.334A3.333 3.333 0 0 1 26 9.333v13.334A3.333 3.333 0 0 1 22.667 26H9.333A3.333 3.333 0 0 1 6 22.667V9.333A3.333 3.333 0 0 1 9.333 6z"/>
    </g>
</svg>
